<?xml version="1.0" encoding="utf-8"?>
<!-- Generator: Adobe Illustrator 25.4.1, SVG Export Plug-In . SVG Version: 6.00 Build 0)  -->
<svg version="1.1" xmlns="http://www.w3.org/2000/svg" xmlns:xlink="http://www.w3.org/1999/xlink" x="0px" y="0px"
	 viewBox="0 0 128 128" style="enable-background:new 0 0 128 128;" xml:space="preserve">
<path d="M27.8,31.9c-8.5,5.4-11.1,16.4-6.3,26.4c1.6,3.5,1.6,3.6-1.2,7.8c-2.3,3.4-2.8,5.6-3.1,11.5c-0.5,8.8,0.9,13.4,5.4,18
	l3.5,3.4H42h16V64V29H45.2C32.8,29,32.2,29.1,27.8,31.9z M51,51v6.1l-6.7-0.3c-6.6-0.3-6.7-0.3-7.7-3.5c-0.7-2.5-0.5-3.8,0.8-5.8
	c1.5-2.2,2.3-2.5,7.6-2.5h6V51z M51,78.5v6.6l-7.2-0.3c-6.9-0.3-7.4-0.4-8.7-3.2c-0.8-3-0.8-3,0.3-6.2C37,72,37,72,44,72h7V78.5z"/>
<path d="M61,64v35h3.5H68V64V29h-3.5H61V64z"/>
<path d="M71,64v35h3.5H78V87V75h8.5H95v12v12h8h8V64V29h-8h-8v13v13h-8.5H78V42V29h-3.5H71V64z"/>
<path d="M17,103v2h47h47v-2v-2H64H17V103z"/>
<path d="M17,25v2h47h47v-2v-2H64H17V25z"/>
</svg>
